<?xml version="1.0" encoding="UTF-8"?>
<svg xmlns="http://www.w3.org/2000/svg" xmlns:xlink="http://www.w3.org/1999/xlink" width="235.539" height="122.409" viewBox="0 0 235.539 122.409">
<defs>
<g>
<g id="glyph-0-0">
<path d="M 5.546875 -1.78125 L 5.34375 -1.828125 C 5 -1.125 4.75 -0.8125 4.3125 -0.59375 C 3.953125 -0.421875 3.546875 -0.359375 2.671875 -0.359375 C 1.921875 -0.359375 1.671875 -0.4375 1.671875 -0.6875 C 1.671875 -0.78125 1.71875 -0.984375 1.78125 -1.1875 L 3 -5.59375 C 3.140625 -6.09375 3.40625 -6.28125 4 -6.3125 L 4 -6.484375 L 1.296875 -6.484375 L 1.296875 -6.3125 C 1.921875 -6.265625 2.046875 -6.1875 2.046875 -5.890625 C 2.046875 -5.75 2.03125 -5.546875 1.9375 -5.28125 L 0.71875 -0.890625 C 0.546875 -0.3125 0.46875 -0.265625 -0.078125 -0.15625 L -0.078125 0 L 4.96875 0 Z M 5.546875 -1.78125 "/>
</g>
<g id="glyph-0-1">
<path d="M 6.078125 -4.953125 L 6.40625 -6.484375 L 1.453125 -6.484375 L 1.453125 -6.3125 C 2.109375 -6.265625 2.21875 -6.203125 2.21875 -5.921875 C 2.21875 -5.765625 2.1875 -5.53125 2.109375 -5.28125 L 0.890625 -0.890625 C 0.71875 -0.296875 0.640625 -0.234375 0.078125 -0.15625 L 0.078125 0 L 2.578125 0 L 2.578125 -0.15625 C 2 -0.1875 1.828125 -0.296875 1.828125 -0.59375 C 1.828125 -0.6875 1.84375 -0.796875 1.921875 -1.046875 L 2.53125 -3.25 C 2.890625 -3.234375 3.109375 -3.21875 3.328125 -3.21875 C 3.71875 -3.21875 3.78125 -3.21875 3.875 -3.171875 C 4.015625 -3.109375 4.09375 -2.96875 4.09375 -2.765625 C 4.09375 -2.609375 4.078125 -2.484375 4.015625 -2.1875 L 4.1875 -2.140625 L 4.9375 -4.453125 L 4.765625 -4.5 C 4.3125 -3.609375 4.28125 -3.609375 2.625 -3.578125 L 3.28125 -5.890625 C 3.328125 -6.09375 3.46875 -6.15625 3.875 -6.15625 C 5.5625 -6.15625 5.90625 -6.015625 5.90625 -5.390625 C 5.90625 -5.328125 5.90625 -5.28125 5.890625 -5.171875 C 5.890625 -5.09375 5.890625 -5.0625 5.875 -4.984375 Z M 6.078125 -4.953125 "/>
</g>
<g id="glyph-0-2">
<path d="M 7.59375 -6.3125 L 7.59375 -6.484375 L 5.609375 -6.484375 L 5.609375 -6.3125 C 6.140625 -6.265625 6.3125 -6.15625 6.3125 -5.859375 C 6.3125 -5.703125 6.078125 -4.71875 5.59375 -3.015625 L 5.453125 -2.53125 C 5.015625 -0.90625 4.390625 -0.234375 3.296875 -0.234375 C 2.46875 -0.234375 1.90625 -0.6875 1.90625 -1.40625 C 1.90625 -1.734375 2.203125 -2.90625 2.875 -5.234375 L 2.921875 -5.421875 C 3.140625 -6.109375 3.296875 -6.25 3.96875 -6.3125 L 3.96875 -6.484375 L 1.265625 -6.484375 L 1.265625 -6.3125 C 1.9375 -6.265625 2.03125 -6.203125 2.03125 -5.90625 C 2.03125 -5.796875 2 -5.640625 1.96875 -5.46875 L 1.4375 -3.5625 C 1.125 -2.484375 1.015625 -1.859375 1.015625 -1.453125 C 1.015625 -0.5 1.921875 0.171875 3.171875 0.171875 C 4.46875 0.171875 5.296875 -0.53125 5.734375 -2.015625 L 6.5625 -4.84375 C 6.9375 -6.125 6.96875 -6.1875 7.59375 -6.3125 Z M 7.59375 -6.3125 "/>
</g>
<g id="glyph-0-3">
<path d="M 1.796875 -0.421875 C 1.796875 -0.734375 1.53125 -0.984375 1.234375 -0.984375 C 0.9375 -0.984375 0.6875 -0.75 0.6875 -0.421875 C 0.6875 -0.046875 1.03125 0.109375 1.234375 0.109375 C 1.453125 0.109375 1.796875 -0.0625 1.796875 -0.421875 Z M 1.796875 -0.421875 "/>
</g>
<g id="glyph-1-0">
<path d="M 5.484375 -3.28125 L 5.484375 -3.828125 L 0.390625 -3.828125 L 0.390625 -3.28125 Z M 5.484375 -1.265625 L 5.484375 -1.8125 L 0.390625 -1.8125 L 0.390625 -1.265625 Z M 5.484375 -1.265625 "/>
</g>
<g id="glyph-2-0">
<path d="M 4.71875 -1.359375 L 4.578125 -1.40625 C 4.21875 -0.84375 4.09375 -0.75 3.640625 -0.75 L 1.265625 -0.75 L 2.9375 -2.5 C 3.8125 -3.421875 4.203125 -4.171875 4.203125 -4.953125 C 4.203125 -5.9375 3.40625 -6.703125 2.375 -6.703125 C 1.828125 -6.703125 1.3125 -6.484375 0.9375 -6.09375 C 0.625 -5.75 0.46875 -5.4375 0.3125 -4.734375 L 0.515625 -4.6875 C 0.90625 -5.65625 1.265625 -5.96875 1.953125 -5.96875 C 2.78125 -5.96875 3.359375 -5.40625 3.359375 -4.578125 C 3.359375 -3.796875 2.890625 -2.875 2.0625 -2 L 0.296875 -0.125 L 0.296875 0 L 4.171875 0 Z M 4.71875 -1.359375 "/>
</g>
<g id="glyph-2-1">
<path d="M 4.71875 -3.28125 C 4.71875 -5.3125 3.8125 -6.703125 2.515625 -6.703125 C 1.96875 -6.703125 1.5625 -6.53125 1.1875 -6.1875 C 0.609375 -5.640625 0.234375 -4.5 0.234375 -3.328125 C 0.234375 -2.25 0.5625 -1.09375 1.03125 -0.53125 C 1.40625 -0.09375 1.90625 0.140625 2.484375 0.140625 C 2.984375 0.140625 3.40625 -0.03125 3.765625 -0.375 C 4.34375 -0.921875 4.71875 -2.078125 4.71875 -3.28125 Z M 3.765625 -3.25 C 3.765625 -1.1875 3.328125 -0.125 2.484375 -0.125 C 1.625 -0.125 1.1875 -1.1875 1.1875 -3.25 C 1.1875 -5.34375 1.640625 -6.453125 2.484375 -6.453125 C 3.328125 -6.453125 3.765625 -5.328125 3.765625 -3.25 Z M 3.765625 -3.25 "/>
</g>
<g id="glyph-2-2">
<path d="M 4.34375 -6.75 L 4.25 -6.828125 C 4.109375 -6.625 4.015625 -6.5625 3.796875 -6.5625 L 1.71875 -6.5625 L 0.640625 -4.21875 C 0.640625 -4.203125 0.640625 -4.171875 0.640625 -4.171875 C 0.640625 -4.125 0.671875 -4.09375 0.75 -4.09375 C 1.078125 -4.09375 1.46875 -4.015625 1.875 -3.890625 C 3.015625 -3.515625 3.546875 -2.90625 3.546875 -1.921875 C 3.546875 -0.96875 2.9375 -0.234375 2.15625 -0.234375 C 1.96875 -0.234375 1.796875 -0.296875 1.5 -0.515625 C 1.1875 -0.75 0.953125 -0.84375 0.75 -0.84375 C 0.453125 -0.84375 0.3125 -0.71875 0.3125 -0.46875 C 0.3125 -0.09375 0.78125 0.140625 1.53125 0.140625 C 2.359375 0.140625 3.078125 -0.125 3.578125 -0.640625 C 4.03125 -1.078125 4.234375 -1.640625 4.234375 -2.40625 C 4.234375 -3.109375 4.046875 -3.578125 3.546875 -4.0625 C 3.109375 -4.5 2.546875 -4.734375 1.375 -4.9375 L 1.796875 -5.78125 L 3.734375 -5.78125 C 3.90625 -5.78125 3.9375 -5.796875 3.96875 -5.875 Z M 4.34375 -6.75 "/>
</g>
<g id="glyph-3-0">
<path d="M 4.09375 -1.453125 L 3.953125 -1.546875 C 3.46875 -0.859375 3.109375 -0.609375 2.546875 -0.609375 C 1.640625 -0.609375 1.015625 -1.40625 1.015625 -2.546875 C 1.015625 -3.578125 1.5625 -4.28125 2.359375 -4.28125 C 2.71875 -4.28125 2.84375 -4.171875 2.953125 -3.796875 L 3 -3.578125 C 3.078125 -3.296875 3.265625 -3.125 3.484375 -3.125 C 3.734375 -3.125 3.953125 -3.3125 3.953125 -3.546875 C 3.953125 -4.09375 3.25 -4.5625 2.421875 -4.5625 C 1.953125 -4.5625 1.484375 -4.390625 1.078125 -4.0625 C 0.546875 -3.609375 0.25 -2.921875 0.25 -2.109375 C 0.25 -0.828125 1.03125 0.09375 2.140625 0.09375 C 2.5625 0.09375 2.9375 -0.046875 3.28125 -0.3125 C 3.578125 -0.5625 3.765625 -0.84375 4.09375 -1.453125 Z M 4.09375 -1.453125 "/>
</g>
<g id="glyph-3-1">
<path d="M 7.6875 0 L 7.6875 -0.15625 L 7.4375 -0.171875 C 7.140625 -0.1875 7 -0.359375 7 -0.75 L 7 -2.796875 C 7 -3.96875 6.625 -4.5625 5.859375 -4.5625 C 5.28125 -4.5625 4.765625 -4.3125 4.234375 -3.734375 C 4.0625 -4.296875 3.71875 -4.5625 3.1875 -4.5625 C 2.75 -4.5625 2.46875 -4.421875 1.640625 -3.796875 L 1.640625 -4.546875 L 1.578125 -4.5625 C 1.078125 -4.375 0.734375 -4.265625 0.1875 -4.125 L 0.1875 -3.953125 C 0.3125 -3.984375 0.390625 -3.984375 0.5 -3.984375 C 0.765625 -3.984375 0.859375 -3.828125 0.859375 -3.359375 L 0.859375 -0.84375 C 0.859375 -0.3125 0.71875 -0.15625 0.15625 -0.15625 L 0.15625 0 L 2.359375 0 L 2.359375 -0.15625 C 1.828125 -0.171875 1.6875 -0.28125 1.6875 -0.671875 L 1.6875 -3.46875 C 1.6875 -3.46875 1.765625 -3.578125 1.828125 -3.65625 C 2.078125 -3.875 2.515625 -4.046875 2.859375 -4.046875 C 3.296875 -4.046875 3.515625 -3.703125 3.515625 -3 L 3.515625 -0.859375 C 3.515625 -0.296875 3.40625 -0.1875 2.84375 -0.15625 L 2.84375 0 L 5.0625 0 L 5.0625 -0.15625 C 4.5 -0.15625 4.34375 -0.328125 4.34375 -0.9375 L 4.34375 -3.4375 C 4.640625 -3.875 4.96875 -4.046875 5.421875 -4.046875 C 6 -4.046875 6.171875 -3.78125 6.171875 -2.953125 L 6.171875 -0.859375 C 6.171875 -0.296875 6.09375 -0.21875 5.515625 -0.15625 L 5.515625 0 Z M 7.6875 0 "/>
</g>
<g id="glyph-3-2">
<path d="M 2.84375 -6.703125 L 2.1875 -6.703125 L -0.09375 0.140625 L 0.578125 0.140625 Z M 2.84375 -6.703125 "/>
</g>
<g id="glyph-3-3">
<path d="M 3.453125 -1.171875 C 3.453125 -1.671875 3.21875 -2 2.625 -2.34375 L 1.546875 -2.984375 C 1.265625 -3.140625 1.125 -3.390625 1.125 -3.65625 C 1.125 -4.0625 1.421875 -4.328125 1.890625 -4.328125 C 2.453125 -4.328125 2.75 -4.015625 2.96875 -3.109375 L 3.125 -3.109375 L 3.078125 -4.46875 L 2.96875 -4.46875 L 2.953125 -4.4375 C 2.875 -4.375 2.859375 -4.359375 2.8125 -4.359375 C 2.765625 -4.359375 2.65625 -4.390625 2.546875 -4.4375 C 2.34375 -4.515625 2.109375 -4.546875 1.875 -4.546875 C 1.0625 -4.546875 0.5 -4.0625 0.5 -3.328125 C 0.5 -2.78125 0.828125 -2.390625 1.671875 -1.90625 L 2.25 -1.578125 C 2.59375 -1.375 2.765625 -1.140625 2.765625 -0.828125 C 2.765625 -0.390625 2.4375 -0.125 1.9375 -0.125 C 1.25 -0.125 0.90625 -0.5 0.671875 -1.515625 L 0.515625 -1.515625 L 0.515625 0.046875 L 0.640625 0.046875 C 0.71875 -0.0625 0.75 -0.078125 0.875 -0.078125 C 0.984375 -0.078125 1.09375 -0.0625 1.328125 0 C 1.609375 0.0625 1.859375 0.09375 2.0625 0.09375 C 2.8125 0.09375 3.453125 -0.46875 3.453125 -1.171875 Z M 3.453125 -1.171875 "/>
</g>
<g id="glyph-3-4">
<path d="M 4.875 -0.421875 L 4.875 -0.578125 C 4.6875 -0.5625 4.671875 -0.5625 4.640625 -0.5625 C 4.28125 -0.5625 4.203125 -0.671875 4.203125 -1.125 L 4.203125 -6.75 L 4.15625 -6.78125 C 3.6875 -6.609375 3.328125 -6.515625 2.703125 -6.34375 L 2.703125 -6.1875 C 2.78125 -6.1875 2.84375 -6.1875 2.921875 -6.1875 C 3.28125 -6.1875 3.375 -6.09375 3.375 -5.6875 L 3.375 -4.140625 C 3 -4.453125 2.734375 -4.5625 2.328125 -4.5625 C 1.1875 -4.5625 0.265625 -3.4375 0.265625 -2.03125 C 0.265625 -0.765625 1.015625 0.09375 2.109375 0.09375 C 2.65625 0.09375 3.03125 -0.09375 3.375 -0.5625 L 3.375 0.0625 L 3.40625 0.09375 Z M 3.375 -1.015625 C 3.375 -0.9375 3.296875 -0.828125 3.203125 -0.71875 C 3.03125 -0.515625 2.78125 -0.421875 2.484375 -0.421875 C 1.671875 -0.421875 1.125 -1.203125 1.125 -2.4375 C 1.125 -3.546875 1.609375 -4.28125 2.359375 -4.28125 C 2.890625 -4.28125 3.375 -3.8125 3.375 -3.296875 Z M 3.375 -1.015625 "/>
</g>
<g id="glyph-3-5">
<path d="M 3.328125 -4.03125 C 3.328125 -4.359375 3.109375 -4.5625 2.78125 -4.5625 C 2.359375 -4.5625 2.078125 -4.328125 1.59375 -3.625 L 1.59375 -4.546875 L 1.53125 -4.5625 C 1.015625 -4.34375 0.65625 -4.21875 0.0625 -4.03125 L 0.0625 -3.875 C 0.203125 -3.90625 0.296875 -3.90625 0.421875 -3.90625 C 0.671875 -3.90625 0.75 -3.75 0.75 -3.3125 L 0.75 -0.828125 C 0.75 -0.34375 0.6875 -0.265625 0.046875 -0.15625 L 0.046875 0 L 2.4375 0 L 2.4375 -0.15625 C 1.75 -0.171875 1.59375 -0.328125 1.59375 -0.890625 L 1.59375 -3.125 C 1.59375 -3.4375 2.015625 -3.9375 2.28125 -3.9375 C 2.34375 -3.9375 2.4375 -3.890625 2.546875 -3.796875 C 2.703125 -3.65625 2.8125 -3.59375 2.9375 -3.59375 C 3.171875 -3.59375 3.328125 -3.765625 3.328125 -4.03125 Z M 3.328125 -4.03125 "/>
</g>
<g id="glyph-3-6">
<path d="M 4.390625 -0.390625 L 4.390625 -0.65625 C 4.21875 -0.515625 4.09375 -0.46875 3.953125 -0.46875 C 3.71875 -0.46875 3.65625 -0.609375 3.65625 -1.046875 L 3.65625 -2.96875 C 3.65625 -3.484375 3.609375 -3.765625 3.46875 -3.984375 C 3.25 -4.359375 2.828125 -4.5625 2.21875 -4.5625 C 1.71875 -4.5625 1.234375 -4.421875 0.96875 -4.203125 C 0.71875 -3.984375 0.5625 -3.703125 0.5625 -3.453125 C 0.5625 -3.21875 0.75 -3.03125 0.984375 -3.03125 C 1.21875 -3.03125 1.421875 -3.21875 1.421875 -3.4375 C 1.421875 -3.484375 1.421875 -3.53125 1.40625 -3.609375 C 1.390625 -3.6875 1.375 -3.765625 1.375 -3.84375 C 1.375 -4.109375 1.703125 -4.328125 2.09375 -4.328125 C 2.578125 -4.328125 2.84375 -4.03125 2.84375 -3.5 L 2.84375 -2.890625 C 1.3125 -2.28125 1.15625 -2.203125 0.71875 -1.828125 C 0.5 -1.625 0.359375 -1.296875 0.359375 -0.96875 C 0.359375 -0.34375 0.796875 0.09375 1.40625 0.09375 C 1.84375 0.09375 2.25 -0.109375 2.859375 -0.625 C 2.90625 -0.09375 3.078125 0.09375 3.5 0.09375 C 3.828125 0.09375 4.03125 -0.015625 4.390625 -0.390625 Z M 2.84375 -1.21875 C 2.84375 -0.90625 2.796875 -0.828125 2.59375 -0.6875 C 2.34375 -0.5625 2.078125 -0.46875 1.859375 -0.46875 C 1.515625 -0.46875 1.234375 -0.8125 1.234375 -1.234375 L 1.234375 -1.28125 C 1.234375 -1.859375 1.640625 -2.21875 2.84375 -2.65625 Z M 2.84375 -1.21875 "/>
</g>
<g id="glyph-3-7">
<path d="M 4.65625 -3.84375 L 4.65625 -4.234375 L 3.90625 -4.234375 C 3.703125 -4.234375 3.546875 -4.265625 3.359375 -4.328125 L 3.140625 -4.421875 C 2.875 -4.515625 2.59375 -4.5625 2.34375 -4.5625 C 1.421875 -4.5625 0.6875 -3.84375 0.6875 -2.953125 C 0.6875 -2.328125 0.953125 -1.9375 1.609375 -1.625 L 1.1875 -1.21875 C 0.859375 -0.9375 0.71875 -0.734375 0.71875 -0.53125 C 0.71875 -0.328125 0.84375 -0.203125 1.25 -0.015625 C 0.546875 0.5 0.28125 0.828125 0.28125 1.203125 C 0.28125 1.71875 1.046875 2.15625 2 2.15625 C 2.734375 2.15625 3.515625 1.90625 4.03125 1.484375 C 4.40625 1.1875 4.578125 0.859375 4.578125 0.484375 C 4.578125 -0.125 4.109375 -0.546875 3.375 -0.578125 L 2.09375 -0.640625 C 1.5625 -0.65625 1.3125 -0.75 1.3125 -0.90625 C 1.3125 -1.09375 1.640625 -1.453125 1.921875 -1.53125 C 2 -1.515625 2.078125 -1.515625 2.109375 -1.515625 C 2.296875 -1.484375 2.421875 -1.484375 2.484375 -1.484375 C 2.84375 -1.484375 3.25 -1.625 3.546875 -1.890625 C 3.875 -2.171875 4.03125 -2.515625 4.03125 -3.015625 C 4.03125 -3.296875 3.984375 -3.53125 3.84375 -3.84375 Z M 4.296875 0.640625 C 4.296875 1.203125 3.546875 1.59375 2.421875 1.59375 C 1.546875 1.59375 0.96875 1.3125 0.96875 0.875 C 0.96875 0.640625 1.046875 0.515625 1.453125 0.015625 C 1.78125 0.09375 2.578125 0.15625 3.0625 0.15625 C 3.96875 0.15625 4.296875 0.28125 4.296875 0.640625 Z M 3.265625 -2.625 C 3.265625 -2.078125 2.96875 -1.71875 2.515625 -1.71875 C 1.921875 -1.71875 1.515625 -2.375 1.515625 -3.328125 L 1.515625 -3.359375 C 1.515625 -3.9375 1.78125 -4.28125 2.25 -4.28125 C 2.546875 -4.28125 2.8125 -4.125 2.96875 -3.8125 C 3.140625 -3.46875 3.265625 -3.015625 3.265625 -2.625 Z M 3.265625 -2.625 "/>
</g>
<g id="glyph-3-8">
<path d="M 4.65625 -2.328125 C 4.65625 -3.625 3.75 -4.5625 2.484375 -4.5625 C 1.1875 -4.5625 0.28125 -3.609375 0.28125 -2.25 C 0.28125 -0.90625 1.203125 0.09375 2.453125 0.09375 C 3.703125 0.09375 4.65625 -0.953125 4.65625 -2.328125 Z M 3.765625 -1.96875 C 3.765625 -0.859375 3.328125 -0.171875 2.578125 -0.171875 C 2.1875 -0.171875 1.828125 -0.421875 1.625 -0.8125 C 1.34375 -1.328125 1.1875 -2.03125 1.1875 -2.734375 C 1.1875 -3.671875 1.640625 -4.28125 2.34375 -4.28125 C 3.1875 -4.28125 3.765625 -3.328125 3.765625 -1.96875 Z M 3.765625 -1.96875 "/>
</g>
<g id="glyph-3-9">
<path d="M 2.515625 0 L 2.515625 -0.15625 C 1.859375 -0.203125 1.78125 -0.296875 1.78125 -1.015625 L 1.78125 -4.53125 L 1.734375 -4.5625 L 0.203125 -4.015625 L 0.203125 -3.875 L 0.28125 -3.875 C 0.390625 -3.90625 0.53125 -3.90625 0.609375 -3.90625 C 0.859375 -3.90625 0.9375 -3.75 0.9375 -3.3125 L 0.9375 -1.015625 C 0.9375 -0.296875 0.84375 -0.1875 0.15625 -0.15625 L 0.15625 0 Z M 1.859375 -6.265625 C 1.859375 -6.546875 1.640625 -6.78125 1.359375 -6.78125 C 1.078125 -6.78125 0.859375 -6.546875 0.859375 -6.265625 C 0.859375 -5.984375 1.078125 -5.765625 1.359375 -5.765625 C 1.640625 -5.765625 1.859375 -5.984375 1.859375 -6.265625 Z M 1.859375 -6.265625 "/>
</g>
<g id="glyph-3-10">
<path d="M 2.546875 0 L 2.546875 -0.15625 C 1.921875 -0.1875 1.8125 -0.28125 1.8125 -0.828125 L 1.8125 -6.75 L 1.765625 -6.78125 C 1.25 -6.609375 0.875 -6.515625 0.1875 -6.34375 L 0.1875 -6.1875 L 0.25 -6.1875 C 0.359375 -6.1875 0.46875 -6.203125 0.5625 -6.203125 C 0.875 -6.203125 0.96875 -6.0625 0.96875 -5.59375 L 0.96875 -0.859375 C 0.96875 -0.328125 0.828125 -0.203125 0.203125 -0.15625 L 0.203125 0 Z M 2.546875 0 "/>
</g>
<g id="glyph-4-0">
<path d="M 5.015625 -3.140625 L 5.015625 -3.25 L 4.125 -3.25 L 4.125 -3.140625 C 4.375 -3.09375 4.453125 -3.046875 4.453125 -2.921875 C 4.453125 -2.8125 4.40625 -2.640625 4.328125 -2.4375 L 3.671875 -0.84375 L 3.0625 -2.453125 C 2.9375 -2.796875 2.9375 -2.796875 2.9375 -2.890625 C 2.9375 -3.046875 3.03125 -3.09375 3.359375 -3.140625 L 3.359375 -3.25 L 1.890625 -3.25 L 1.890625 -3.140625 C 2.15625 -3.125 2.25 -3.03125 2.390625 -2.640625 L 2.546875 -2.25 L 1.875 -0.796875 L 1.171875 -2.6875 C 1.140625 -2.765625 1.125 -2.828125 1.125 -2.90625 C 1.125 -3.0625 1.203125 -3.125 1.453125 -3.140625 L 1.453125 -3.25 L 0.15625 -3.25 L 0.15625 -3.140625 C 0.3125 -3.125 0.375 -3.0625 0.53125 -2.6875 L 1.515625 -0.21875 C 1.59375 0 1.65625 0.09375 1.703125 0.09375 C 1.734375 0.09375 1.796875 0 1.875 -0.1875 L 2.6875 -1.921875 L 3.34375 -0.203125 C 3.453125 0.0625 3.484375 0.09375 3.515625 0.09375 C 3.578125 0.09375 3.609375 0.03125 3.71875 -0.25 L 4.71875 -2.75 C 4.859375 -3.0625 4.875 -3.09375 5.015625 -3.140625 Z M 5.015625 -3.140625 "/>
</g>
<g id="glyph-4-1">
<path d="M 1.828125 0 L 1.828125 -0.109375 C 1.359375 -0.140625 1.296875 -0.21875 1.296875 -0.734375 L 1.296875 -3.3125 L 1.265625 -3.328125 L 0.140625 -2.9375 L 0.140625 -2.828125 L 0.203125 -2.828125 C 0.296875 -2.84375 0.390625 -2.84375 0.453125 -2.84375 C 0.625 -2.84375 0.6875 -2.734375 0.6875 -2.421875 L 0.6875 -0.734375 C 0.6875 -0.21875 0.609375 -0.140625 0.109375 -0.109375 L 0.109375 0 Z M 1.359375 -4.578125 C 1.359375 -4.78125 1.203125 -4.9375 0.984375 -4.9375 C 0.78125 -4.9375 0.625 -4.78125 0.625 -4.578125 C 0.625 -4.359375 0.78125 -4.203125 0.984375 -4.203125 C 1.203125 -4.203125 1.359375 -4.359375 1.359375 -4.578125 Z M 1.359375 -4.578125 "/>
</g>
<g id="glyph-4-2">
<path d="M 3.515625 0 L 3.515625 -0.109375 C 3.15625 -0.140625 3.0625 -0.234375 3.0625 -0.59375 L 3.0625 -2.25 C 3.0625 -2.921875 2.75 -3.328125 2.21875 -3.328125 C 1.875 -3.328125 1.65625 -3.203125 1.171875 -2.734375 L 1.171875 -3.3125 L 1.109375 -3.328125 C 0.765625 -3.203125 0.515625 -3.125 0.109375 -3 L 0.109375 -2.875 C 0.15625 -2.90625 0.234375 -2.90625 0.3125 -2.90625 C 0.515625 -2.90625 0.578125 -2.796875 0.578125 -2.4375 L 0.578125 -0.65625 C 0.578125 -0.234375 0.5 -0.140625 0.125 -0.109375 L 0.125 0 L 1.65625 0 L 1.65625 -0.109375 C 1.296875 -0.140625 1.1875 -0.21875 1.1875 -0.484375 L 1.1875 -2.515625 C 1.53125 -2.84375 1.6875 -2.9375 1.9375 -2.9375 C 2.28125 -2.9375 2.453125 -2.703125 2.453125 -2.234375 L 2.453125 -0.71875 C 2.453125 -0.265625 2.359375 -0.140625 2 -0.109375 L 2 0 Z M 3.515625 0 "/>
</g>
<g id="glyph-4-3">
<path d="M 3.546875 -0.296875 L 3.546875 -0.421875 C 3.421875 -0.40625 3.40625 -0.40625 3.390625 -0.40625 C 3.125 -0.40625 3.0625 -0.484375 3.0625 -0.828125 L 3.0625 -4.921875 L 3.03125 -4.9375 C 2.6875 -4.8125 2.4375 -4.75 1.96875 -4.625 L 1.96875 -4.5 C 2.03125 -4.515625 2.0625 -4.515625 2.125 -4.515625 C 2.390625 -4.515625 2.453125 -4.4375 2.453125 -4.140625 L 2.453125 -3.015625 C 2.1875 -3.25 1.984375 -3.328125 1.703125 -3.328125 C 0.875 -3.328125 0.203125 -2.515625 0.203125 -1.484375 C 0.203125 -0.5625 0.734375 0.078125 1.53125 0.078125 C 1.9375 0.078125 2.21875 -0.078125 2.453125 -0.40625 L 2.453125 0.046875 L 2.484375 0.078125 Z M 2.453125 -0.734375 C 2.453125 -0.6875 2.40625 -0.59375 2.34375 -0.515625 C 2.203125 -0.375 2.03125 -0.296875 1.8125 -0.296875 C 1.21875 -0.296875 0.8125 -0.875 0.8125 -1.765625 C 0.8125 -2.59375 1.171875 -3.125 1.71875 -3.125 C 2.109375 -3.125 2.453125 -2.78125 2.453125 -2.40625 Z M 2.453125 -0.734375 "/>
</g>
<g id="glyph-5-0">
<path d="M 5.796875 -1.953125 C 5.796875 -2.609375 5.4375 -3.171875 4.71875 -3.171875 C 4.125 -3.171875 3.546875 -2.59375 3.1875 -2.15625 C 2.875 -2.65625 2.296875 -3.1875 1.6875 -3.1875 C 0.890625 -3.1875 0.375 -2.421875 0.375 -1.671875 C 0.375 -1.015625 0.75 -0.453125 1.46875 -0.453125 C 2.03125 -0.453125 2.671875 -1.046875 3 -1.484375 C 3.328125 -0.984375 3.859375 -0.453125 4.5 -0.453125 C 5.296875 -0.453125 5.796875 -1.234375 5.796875 -1.953125 Z M 5.375 -1.625 C 5.375 -1.140625 5.140625 -0.75 4.625 -0.75 C 4.078125 -0.75 3.59375 -1.5625 3.3125 -1.953125 C 3.515625 -2.28125 4.109375 -2.8125 4.5 -2.8125 C 5.078125 -2.8125 5.375 -2.109375 5.375 -1.625 Z M 2.875 -1.6875 C 2.65625 -1.359375 2.0625 -0.84375 1.671875 -0.84375 C 1.09375 -0.84375 0.796875 -1.546875 0.796875 -2.03125 C 0.796875 -2.515625 1.046875 -2.921875 1.578125 -2.921875 C 2.0625 -2.921875 2.65625 -2.09375 2.875 -1.6875 Z M 2.875 -1.6875 "/>
</g>
</g>
</defs>
<path fill-rule="nonzero" fill="rgb(90.000916%, 96.783447%, 99.372864%)" fill-opacity="1" d="M 4.699219 75.539062 L 4.699219 117.855469 L 230.382812 117.855469 L 230.382812 75.539062 Z M 4.699219 75.539062 "/>
<path fill="none" stroke-width="0.79701" stroke-linecap="butt" stroke-linejoin="miter" stroke="rgb(5.410767%, 53.253174%, 82.785034%)" stroke-opacity="1" stroke-miterlimit="10" d="M -0.000193203 0.000229138 L 226.773018 0.000229138 " transform="matrix(0.995195, 0, 0, -0.995195, 4.699411, 75.539291)"/>
<path fill="none" stroke-width="0.3985" stroke-linecap="butt" stroke-linejoin="miter" stroke="rgb(5.410767%, 53.253174%, 82.785034%)" stroke-opacity="1" stroke-miterlimit="10" d="M 28.346949 0.000229138 L 22.67909 5.668088 L 34.014807 5.668088 Z M 28.346949 0.000229138 " transform="matrix(0.995195, 0, 0, -0.995195, 4.699411, 75.539291)"/>
<path fill="none" stroke-width="0.3985" stroke-linecap="butt" stroke-linejoin="miter" stroke="rgb(5.410767%, 53.253174%, 82.785034%)" stroke-opacity="1" stroke-miterlimit="10" d="M 187.090159 0.000229138 L 181.418376 5.668088 L 192.758018 5.668088 Z M 187.090159 0.000229138 " transform="matrix(0.995195, 0, 0, -0.995195, 4.699411, 75.539291)"/>
<path fill-rule="nonzero" fill="rgb(89.99939%, 79.998779%, 69.999695%)" fill-opacity="1" stroke-width="0.79701" stroke-linecap="butt" stroke-linejoin="miter" stroke="rgb(0%, 0%, 0%)" stroke-opacity="1" stroke-miterlimit="10" d="M 85.041233 0.000229138 L 85.041233 56.694513 L 141.735517 56.694513 L 141.735517 0.000229138 Z M 85.041233 0.000229138 " transform="matrix(0.995195, 0, 0, -0.995195, 4.699411, 75.539291)"/>
<path fill="none" stroke-width="0.3985" stroke-linecap="butt" stroke-linejoin="miter" stroke="rgb(0%, 0%, 0%)" stroke-opacity="1" stroke-miterlimit="10" d="M 88.50318 65.196301 L 138.27357 65.196301 " transform="matrix(0.995195, 0, 0, -0.995195, 4.699411, 75.539291)"/>
<path fill-rule="nonzero" fill="rgb(0%, 0%, 0%)" fill-opacity="1" stroke-width="0.3985" stroke-linecap="butt" stroke-linejoin="miter" stroke="rgb(0%, 0%, 0%)" stroke-opacity="1" stroke-miterlimit="10" d="M 4.21421 0.00143919 L 0.64236 1.343827 L 1.815968 0.00143919 L 0.64236 -1.344873 Z M 4.21421 0.00143919 " transform="matrix(-0.995195, 0, 0, 0.995195, 94.48693, 10.654818)"/>
<path fill="none" stroke-width="0.3985" stroke-linecap="butt" stroke-linejoin="miter" stroke="rgb(0%, 0%, 0%)" stroke-opacity="1" stroke-miterlimit="10" d="M -0.00174357 2.289778 L -0.00174357 -2.290825 " transform="matrix(-0.995195, 0, 0, 0.995195, 89.529515, 10.654818)"/>
<path fill-rule="nonzero" fill="rgb(0%, 0%, 0%)" fill-opacity="1" stroke-width="0.3985" stroke-linecap="butt" stroke-linejoin="miter" stroke="rgb(0%, 0%, 0%)" stroke-opacity="1" stroke-miterlimit="10" d="M 4.2165 -0.00143919 L 0.64465 1.344873 L 1.818258 -0.00143919 L 0.64465 -1.343827 Z M 4.2165 -0.00143919 " transform="matrix(0.995195, 0, 0, -0.995195, 140.596728, 10.654818)"/>
<path fill="none" stroke-width="0.3985" stroke-linecap="butt" stroke-linejoin="miter" stroke="rgb(0%, 0%, 0%)" stroke-opacity="1" stroke-miterlimit="10" d="M 0.000546507 2.290825 L 0.000546507 -2.289778 " transform="matrix(0.995195, 0, 0, -0.995195, 145.554144, 10.654818)"/>
<path fill-rule="nonzero" fill="rgb(100%, 100%, 100%)" fill-opacity="1" d="M 95.539062 17.34375 L 139.542969 17.34375 L 139.542969 3.964844 L 95.539062 3.964844 Z M 95.539062 17.34375 "/>
<g fill="rgb(0%, 0%, 0%)" fill-opacity="1">
<use xlink:href="#glyph-0-0" x="99.298679" y="13.962588"/>
</g>
<g fill="rgb(0%, 0%, 0%)" fill-opacity="1">
<use xlink:href="#glyph-1-0" x="108.061372" y="13.962588"/>
</g>
<g fill="rgb(0%, 0%, 0%)" fill-opacity="1">
<use xlink:href="#glyph-2-0" x="116.684737" y="13.962588"/>
</g>
<g fill="rgb(0%, 0%, 0%)" fill-opacity="1">
<use xlink:href="#glyph-3-0" x="124.120835" y="13.962588"/>
<use xlink:href="#glyph-3-1" x="128.522976" y="13.962588"/>
</g>
<path fill="none" stroke-width="0.79701" stroke-linecap="butt" stroke-linejoin="miter" stroke="rgb(100%, 0%, 0%)" stroke-opacity="1" stroke-miterlimit="10" d="M 25.51302 28.347371 L 73.48571 28.347371 " transform="matrix(0.995195, 0, 0, -0.995195, 4.699411, 75.539291)"/>
<path fill-rule="nonzero" fill="rgb(100%, 0%, 0%)" fill-opacity="1" stroke-width="0.79701" stroke-linecap="butt" stroke-linejoin="miter" stroke="rgb(100%, 0%, 0%)" stroke-opacity="1" stroke-miterlimit="10" d="M 8.069523 0.000571198 L 1.286933 2.555818 L 3.520321 0.000571198 L 1.286933 -2.5586 Z M 8.069523 0.000571198 " transform="matrix(0.995195, 0, 0, -0.995195, 74.527844, 47.328693)"/>
<g fill="rgb(100%, 0%, 0%)" fill-opacity="1">
<use xlink:href="#glyph-0-1" x="46.735458" y="42.050975"/>
</g>
<g fill="rgb(100%, 0%, 0%)" fill-opacity="1">
<use xlink:href="#glyph-4-0" x="52.35632" y="43.537796"/>
<use xlink:href="#glyph-4-1" x="57.581979" y="43.537796"/>
<use xlink:href="#glyph-4-2" x="59.594075" y="43.537796"/>
<use xlink:href="#glyph-4-3" x="63.212953" y="43.537796"/>
</g>
<path fill="none" stroke-width="0.79701" stroke-linecap="butt" stroke-linejoin="miter" stroke="rgb(0%, 0%, 0%)" stroke-opacity="1" stroke-miterlimit="10" d="M 147.403375 28.347371 L 181.202495 28.347371 " transform="matrix(0.995195, 0, 0, -0.995195, 4.699411, 75.539291)"/>
<path fill-rule="nonzero" fill="rgb(0%, 0%, 0%)" fill-opacity="1" stroke-width="0.79701" stroke-linecap="butt" stroke-linejoin="miter" stroke="rgb(0%, 0%, 0%)" stroke-opacity="1" stroke-miterlimit="10" d="M 8.072263 0.000571198 L 1.285748 2.555818 L 3.519135 0.000571198 L 1.285748 -2.5586 Z M 8.072263 0.000571198 " transform="matrix(0.995195, 0, 0, -0.995195, 181.728242, 47.328693)"/>
<g fill="rgb(0%, 0%, 0%)" fill-opacity="1">
<use xlink:href="#glyph-0-2" x="138.920382" y="42.140542"/>
</g>
<g fill="rgb(0%, 0%, 0%)" fill-opacity="1">
<use xlink:href="#glyph-5-0" x="146.07882" y="43.628359"/>
</g>
<g fill="rgb(0%, 0%, 0%)" fill-opacity="1">
<use xlink:href="#glyph-1-0" x="155.502323" y="42.140542"/>
</g>
<g fill="rgb(0%, 0%, 0%)" fill-opacity="1">
<use xlink:href="#glyph-2-1" x="164.125689" y="42.140542"/>
</g>
<g fill="rgb(0%, 0%, 0%)" fill-opacity="1">
<use xlink:href="#glyph-0-3" x="169.241987" y="42.140542"/>
</g>
<g fill="rgb(0%, 0%, 0%)" fill-opacity="1">
<use xlink:href="#glyph-2-1" x="171.889206" y="42.140542"/>
<use xlink:href="#glyph-2-2" x="176.846571" y="42.140542"/>
</g>
<g fill="rgb(0%, 0%, 0%)" fill-opacity="1">
<use xlink:href="#glyph-3-0" x="184.282371" y="42.140542"/>
<use xlink:href="#glyph-3-1" x="188.684511" y="42.140542"/>
<use xlink:href="#glyph-3-2" x="196.398172" y="42.140542"/>
<use xlink:href="#glyph-3-3" x="199.154467" y="42.140542"/>
</g>
<path fill="none" stroke-width="0.79701" stroke-linecap="butt" stroke-linejoin="miter" stroke="rgb(0%, 0%, 100%)" stroke-opacity="1" stroke-miterlimit="10" d="M 141.735517 -8.505484 L 90.924972 -8.505484 " transform="matrix(0.995195, 0, 0, -0.995195, 4.699411, 75.539291)"/>
<path fill-rule="nonzero" fill="rgb(0%, 0%, 100%)" fill-opacity="1" stroke-width="0.79701" stroke-linecap="butt" stroke-linejoin="miter" stroke="rgb(0%, 0%, 100%)" stroke-opacity="1" stroke-miterlimit="10" d="M 8.0704 0.00136352 L 1.287811 2.55661 L 3.517273 0.00136352 L 1.287811 -2.557808 Z M 8.0704 0.00136352 " transform="matrix(-0.995195, 0, 0, 0.995195, 98.492561, 84.002549)"/>
<g fill="rgb(0%, 0%, 100%)" fill-opacity="1">
<use xlink:href="#glyph-3-4" x="108.731138" y="94.4062"/>
<use xlink:href="#glyph-3-5" x="113.688503" y="94.4062"/>
<use xlink:href="#glyph-3-6" x="116.990109" y="94.4062"/>
<use xlink:href="#glyph-3-7" x="121.392249" y="94.4062"/>
</g>
<g fill="rgb(0%, 0%, 0%)" fill-opacity="1">
<use xlink:href="#glyph-3-8" x="191.29352" y="107.061101"/>
<use xlink:href="#glyph-3-9" x="196.250886" y="107.061101"/>
<use xlink:href="#glyph-3-10" x="199.007181" y="107.061101"/>
</g>
</svg>
