<?xml version="1.0" encoding="UTF-8"?>
<svg xmlns="http://www.w3.org/2000/svg" xmlns:xlink="http://www.w3.org/1999/xlink" width="305.138" height="145.621" viewBox="0 0 305.138 145.621">
<defs>
<g>
<g id="glyph-0-0">
<path d="M 4.65625 -3.140625 C 4.65625 -3.921875 4.234375 -4.375 3.515625 -4.375 C 2.875 -4.375 2.390625 -4.0625 1.8125 -3.265625 L 2.125 -4.34375 C 2.125 -4.34375 2.109375 -4.375 2.078125 -4.375 L 2.0625 -4.375 L 0.53125 -4.15625 L 0.5625 -4.015625 C 0.859375 -4.015625 1.203125 -4.015625 1.203125 -3.75 C 1.203125 -3.625 0.859375 -2.25 0.5 -0.9375 L -0.078125 1.296875 C -0.171875 1.75 -0.3125 1.875 -0.75 1.875 L -0.75 2.03125 L 1.296875 2.03125 L 1.296875 1.890625 C 0.828125 1.890625 0.65625 1.8125 0.65625 1.59375 C 0.65625 1.453125 0.828125 0.703125 1.03125 -0.0625 C 1.265625 0.0625 1.453125 0.109375 1.671875 0.109375 C 3.125 0.109375 4.65625 -1.546875 4.65625 -3.140625 Z M 3.765625 -3.109375 C 3.765625 -2.453125 3.5 -1.625 3.078125 -1.03125 C 2.65625 -0.390625 2.171875 -0.078125 1.640625 -0.078125 C 1.359375 -0.078125 1.15625 -0.234375 1.15625 -0.453125 C 1.15625 -0.78125 1.515625 -2.078125 1.8125 -2.828125 C 2.0625 -3.484375 2.625 -3.953125 3.109375 -3.953125 C 3.125 -3.953125 3.140625 -3.953125 3.15625 -3.953125 C 3.578125 -3.9375 3.765625 -3.671875 3.765625 -3.109375 Z M 3.765625 -3.109375 "/>
</g>
<g id="glyph-0-1">
<path d="M 4.71875 -1 L 4.59375 -1.109375 C 4.046875 -0.484375 3.953125 -0.390625 3.78125 -0.390625 C 3.6875 -0.390625 3.609375 -0.484375 3.609375 -0.59375 C 3.609375 -0.75 3.921875 -1.921875 4.25 -3.046875 L 5.234375 -6.734375 L 5.1875 -6.78125 C 4.65625 -6.671875 4.296875 -6.625 3.671875 -6.5625 L 3.671875 -6.390625 C 4.21875 -6.375 4.28125 -6.34375 4.28125 -6.125 C 4.28125 -6 4.265625 -5.96875 4.140625 -5.4375 L 3.703125 -3.8125 C 3.625 -4.21875 3.4375 -4.375 3.046875 -4.375 C 1.765625 -4.375 0.15625 -2.515625 0.15625 -1.03125 C 0.15625 -0.3125 0.546875 0.109375 1.1875 0.109375 C 1.875 0.109375 2.3125 -0.203125 2.984375 -1.203125 C 2.875 -0.703125 2.859375 -0.546875 2.859375 -0.3125 C 2.859375 -0.046875 3.015625 0.125 3.265625 0.125 C 3.6875 0.125 4.21875 -0.28125 4.71875 -1 Z M 3.53125 -3.59375 C 3.53125 -2.078125 2.5 -0.375 1.59375 -0.375 C 1.25 -0.375 1.015625 -0.625 1.015625 -1.03125 C 1.015625 -1.84375 1.515625 -3 2.171875 -3.703125 C 2.4375 -3.96875 2.765625 -4.15625 3.046875 -4.15625 C 3.0625 -4.15625 3.078125 -4.15625 3.09375 -4.15625 C 3.390625 -4.140625 3.53125 -3.9375 3.53125 -3.59375 Z M 3.53125 -3.59375 "/>
</g>
<g id="glyph-0-2">
<path d="M 4.234375 -3.828125 C 4.234375 -4.140625 3.984375 -4.375 3.6875 -4.375 C 3.453125 -4.375 3.296875 -4.234375 3.296875 -4.015625 C 3.296875 -3.859375 3.375 -3.75 3.578125 -3.625 C 3.765625 -3.515625 3.828125 -3.421875 3.828125 -3.296875 C 3.828125 -2.890625 3.484375 -2.125 2.625 -0.71875 L 2.421875 -1.875 C 2.28125 -2.75 1.71875 -4.375 1.5625 -4.375 L 1.4375 -4.375 L 0.46875 -4.203125 L 0.15625 -4.140625 L 0.15625 -3.96875 C 0.265625 -4 0.34375 -4.015625 0.453125 -4.015625 C 0.859375 -4.015625 1.03125 -3.859375 1.21875 -3.375 C 1.484375 -2.703125 2.03125 -0.484375 2.03125 -0.078125 C 2.03125 0.03125 2 0.15625 1.9375 0.265625 C 1.859375 0.390625 1.40625 0.984375 1.234375 1.171875 C 1 1.421875 0.890625 1.5 0.75 1.5 C 0.6875 1.5 0.625 1.46875 0.515625 1.390625 C 0.375 1.265625 0.265625 1.21875 0.15625 1.21875 C -0.0625 1.21875 -0.234375 1.390625 -0.234375 1.609375 C -0.234375 1.875 -0.03125 2.046875 0.265625 2.046875 C 0.828125 2.046875 1.90625 0.90625 2.9375 -0.8125 C 3.765625 -2.171875 4.234375 -3.265625 4.234375 -3.828125 Z M 4.234375 -3.828125 "/>
</g>
<g id="glyph-0-3">
<path d="M 3.609375 0.046875 C 3.609375 -0.171875 3.46875 -0.3125 3.265625 -0.3125 C 3.0625 -0.3125 2.921875 -0.171875 2.921875 0.015625 C 2.921875 0.09375 2.953125 0.171875 3.015625 0.296875 C 3.046875 0.359375 3.0625 0.40625 3.0625 0.453125 C 3.0625 0.53125 2.953125 0.59375 2.796875 0.59375 C 2.546875 0.59375 2.421875 0.5 2.09375 0.09375 C 1.65625 -0.46875 1.46875 -0.59375 0.890625 -0.71875 L 3.78125 -4.140625 L 3.78125 -4.25 L 0.953125 -4.25 L 0.640625 -3.109375 L 0.8125 -3.078125 C 1.015625 -3.5625 1.140625 -3.65625 1.609375 -3.65625 L 3.0625 -3.65625 L -0.015625 0.046875 L 0.0625 0.125 C 0.234375 0 0.359375 -0.046875 0.515625 -0.046875 C 0.78125 -0.046875 1.09375 0.078125 1.5625 0.375 C 2.0625 0.671875 2.390625 0.8125 2.671875 0.8125 C 3.171875 0.8125 3.609375 0.453125 3.609375 0.046875 Z M 3.609375 0.046875 "/>
</g>
<g id="glyph-0-4">
<path d="M 4.796875 -2.875 C 4.796875 -3.3125 4.546875 -4.375 3.265625 -4.375 C 1.875 -4.375 0.90625 -3.40625 0.515625 -1.765625 L 0.09375 0.015625 C 0.03125 0.328125 -0.21875 1.265625 -0.625 2.0625 L 0.375 2.0625 L 1.015625 -0.265625 L 1.03125 -0.265625 C 1.03125 -0.25 1.265625 0.109375 2.03125 0.109375 C 3.5625 0.109375 4.796875 -1.40625 4.796875 -2.875 Z M 4.046875 -2.859375 C 4.046875 -2.125 3.625 -0.15625 2.25 -0.15625 C 1.390625 -0.15625 1.328125 -1.15625 1.328125 -1.375 C 1.328125 -2.125 1.71875 -4.140625 3.109375 -4.140625 C 3.953125 -4.140625 4.046875 -3.265625 4.046875 -2.859375 Z M 4.046875 -2.859375 "/>
</g>
<g id="glyph-0-5">
<path d="M 6.09375 -4.96875 L 6.40625 -6.484375 L 1.453125 -6.484375 L 1.453125 -6.328125 C 2.109375 -6.265625 2.21875 -6.21875 2.21875 -5.9375 C 2.21875 -5.78125 2.1875 -5.53125 2.109375 -5.28125 L 0.890625 -0.890625 C 0.71875 -0.296875 0.640625 -0.234375 0.078125 -0.15625 L 0.078125 0 L 2.578125 0 L 2.578125 -0.15625 C 2 -0.1875 1.828125 -0.296875 1.828125 -0.59375 C 1.828125 -0.6875 1.84375 -0.8125 1.921875 -1.046875 L 2.53125 -3.265625 C 2.90625 -3.234375 3.125 -3.234375 3.34375 -3.234375 C 3.734375 -3.234375 3.78125 -3.21875 3.890625 -3.1875 C 4.03125 -3.109375 4.109375 -2.96875 4.109375 -2.765625 C 4.109375 -2.609375 4.078125 -2.5 4.03125 -2.1875 L 4.1875 -2.140625 L 4.953125 -4.46875 L 4.765625 -4.515625 C 4.328125 -3.625 4.296875 -3.609375 2.625 -3.59375 L 3.28125 -5.90625 C 3.34375 -6.109375 3.484375 -6.15625 3.890625 -6.15625 C 5.5625 -6.15625 5.90625 -6.03125 5.90625 -5.40625 C 5.90625 -5.34375 5.90625 -5.296875 5.90625 -5.171875 C 5.890625 -5.109375 5.890625 -5.0625 5.890625 -4.984375 Z M 6.09375 -4.96875 "/>
</g>
<g id="glyph-0-6">
<path d="M 6.84375 -6.328125 L 6.84375 -6.484375 L 4.984375 -6.484375 L 4.984375 -6.328125 C 5.4375 -6.28125 5.609375 -6.1875 5.609375 -6 C 5.609375 -5.796875 5.4375 -5.390625 5.09375 -4.8125 L 3.046875 -1.265625 L 2.390625 -5.671875 C 2.390625 -5.71875 2.390625 -5.78125 2.390625 -5.828125 C 2.390625 -6.15625 2.53125 -6.265625 3.15625 -6.328125 L 3.15625 -6.484375 L 0.75 -6.484375 L 0.75 -6.328125 C 1.3125 -6.265625 1.328125 -6.234375 1.546875 -4.984375 L 2.390625 0.171875 L 2.578125 0.171875 L 6.28125 -5.9375 C 6.453125 -6.203125 6.609375 -6.3125 6.84375 -6.328125 Z M 6.84375 -6.328125 "/>
</g>
<g id="glyph-0-7">
<path d="M 4.890625 -4.28125 C 4.890625 -5.71875 4.453125 -6.875 3.375 -6.875 C 2.546875 -6.875 1.640625 -6.078125 1.640625 -5.640625 C 1.640625 -5.3125 1.890625 -5.171875 2.09375 -5.171875 C 2.3125 -5.171875 2.4375 -5.34375 2.453125 -5.359375 C 2.421875 -5.390625 2.359375 -5.484375 2.359375 -5.625 C 2.359375 -5.71875 2.546875 -6.578125 3.40625 -6.578125 C 4.109375 -6.578125 4.265625 -5.65625 4.265625 -4.84375 C 4.265625 -4.25 4.1875 -3.703125 4.1875 -3.703125 L 4.171875 -3.703125 C 4.171875 -3.703125 3.78125 -4.3125 3 -4.3125 C 1.015625 -4.3125 0.1875 -2.390625 0.1875 -1.359375 C 0.1875 -0.4375 0.734375 0.15625 1.84375 0.15625 C 3.546875 0.15625 4.890625 -1.578125 4.890625 -4.28125 Z M 3.75 -3.15625 C 3.75 -2.90625 3.5 -0.078125 1.90625 -0.078125 C 1.34375 -0.078125 1.078125 -0.390625 1.078125 -1.03125 C 1.078125 -1.65625 1.5 -4.078125 2.9375 -4.078125 C 3.484375 -4.078125 3.75 -3.75 3.75 -3.15625 Z M 3.75 -3.15625 "/>
</g>
<g id="glyph-0-8">
<path d="M 4.140625 -1.03125 L 4 -1.109375 C 3.921875 -1 3.859375 -0.953125 3.78125 -0.828125 C 3.546875 -0.53125 3.4375 -0.4375 3.3125 -0.4375 C 3.171875 -0.4375 3.078125 -0.5625 3.015625 -0.84375 C 2.984375 -0.9375 2.984375 -0.984375 2.96875 -1 C 2.734375 -1.9375 2.609375 -2.46875 2.609375 -2.625 C 3.046875 -3.390625 3.40625 -3.828125 3.59375 -3.828125 C 3.640625 -3.828125 3.734375 -3.796875 3.828125 -3.75 C 3.9375 -3.671875 4.015625 -3.65625 4.109375 -3.65625 C 4.296875 -3.65625 4.4375 -3.8125 4.4375 -4.015625 C 4.4375 -4.234375 4.265625 -4.375 4.03125 -4.375 C 3.59375 -4.375 3.234375 -4.03125 2.53125 -2.96875 L 2.421875 -3.515625 C 2.28125 -4.1875 2.171875 -4.375 1.90625 -4.375 C 1.671875 -4.375 1.359375 -4.296875 0.75 -4.09375 L 0.640625 -4.046875 L 0.671875 -3.90625 L 0.84375 -3.9375 C 1.03125 -4 1.15625 -4.015625 1.234375 -4.015625 C 1.484375 -4.015625 1.546875 -3.921875 1.671875 -3.328125 L 1.96875 -2.109375 L 1.15625 -0.9375 C 0.9375 -0.640625 0.75 -0.46875 0.640625 -0.46875 C 0.59375 -0.46875 0.484375 -0.5 0.390625 -0.5625 C 0.265625 -0.625 0.15625 -0.65625 0.0625 -0.65625 C -0.125 -0.65625 -0.265625 -0.5 -0.265625 -0.3125 C -0.265625 -0.046875 -0.078125 0.109375 0.234375 0.109375 C 0.53125 0.109375 0.65625 0.015625 1.15625 -0.578125 L 2.046875 -1.75 L 2.34375 -0.5625 C 2.46875 -0.046875 2.609375 0.109375 2.921875 0.109375 C 3.296875 0.109375 3.5625 -0.125 4.140625 -1.03125 Z M 4.140625 -1.03125 "/>
</g>
<g id="glyph-1-0">
<path d="M 3.375 -0.75 L 3.265625 -0.8125 C 3.21875 -0.734375 3.171875 -0.703125 3.109375 -0.609375 C 2.9375 -0.390625 2.859375 -0.3125 2.765625 -0.3125 C 2.671875 -0.3125 2.609375 -0.40625 2.546875 -0.609375 C 2.53125 -0.6875 2.515625 -0.71875 2.515625 -0.734375 C 2.28125 -1.40625 2.171875 -1.8125 2.171875 -1.90625 C 2.515625 -2.46875 2.78125 -2.796875 2.921875 -2.796875 C 2.96875 -2.796875 3.046875 -2.765625 3.125 -2.734375 C 3.21875 -2.6875 3.28125 -2.671875 3.34375 -2.671875 C 3.515625 -2.671875 3.625 -2.78125 3.609375 -2.921875 C 3.609375 -3.09375 3.46875 -3.203125 3.265625 -3.203125 C 2.90625 -3.203125 2.609375 -2.9375 2.046875 -2.15625 L 1.921875 -2.5625 C 1.796875 -3.046875 1.6875 -3.203125 1.453125 -3.203125 C 1.265625 -3.203125 1 -3.140625 0.484375 -2.984375 L 0.40625 -2.953125 L 0.4375 -2.84375 L 0.578125 -2.875 C 0.71875 -2.921875 0.828125 -2.921875 0.90625 -2.921875 C 1.109375 -2.921875 1.15625 -2.859375 1.296875 -2.421875 L 1.578125 -1.53125 L 0.921875 -0.6875 C 0.765625 -0.46875 0.609375 -0.34375 0.515625 -0.34375 C 0.46875 -0.34375 0.390625 -0.359375 0.296875 -0.40625 C 0.203125 -0.453125 0.109375 -0.484375 0.03125 -0.484375 C -0.125 -0.484375 -0.234375 -0.375 -0.234375 -0.21875 C -0.21875 -0.03125 -0.0625 0.078125 0.203125 0.078125 C 0.453125 0.078125 0.546875 0.015625 0.953125 -0.421875 L 1.65625 -1.28125 L 1.9375 -0.40625 C 2.0625 -0.03125 2.15625 0.078125 2.421875 0.078125 C 2.71875 0.078125 2.9375 -0.09375 3.375 -0.75 Z M 3.375 -0.75 "/>
</g>
<g id="glyph-2-0">
<path d="M 3.375 23.296875 C 1.875 21.03125 1.453125 15.03125 1.453125 11.375 C 1.453125 7.6875 1.875 2.109375 3.375 -0.15625 L 3.234375 -0.5625 C 1.78125 1.609375 0.5 4.78125 0.5 11.375 C 0.5 17.953125 1.84375 21.90625 3.234375 23.703125 Z M 3.375 23.296875 "/>
</g>
<g id="glyph-2-1">
<path d="M 0.296875 23.296875 L 0.421875 23.703125 C 1.8125 21.90625 3.171875 17.953125 3.171875 11.375 C 3.171875 4.78125 1.875 1.609375 0.421875 -0.5625 L 0.296875 -0.15625 C 1.796875 2.109375 2.203125 7.6875 2.203125 11.375 C 2.203125 15.03125 1.796875 21.03125 0.296875 23.296875 Z M 0.296875 23.296875 "/>
</g>
<g id="glyph-3-0">
<path d="M 2.46875 -2.84375 L 0.296875 -2.84375 L 0.296875 -2.1875 L 2.46875 -2.1875 L 2.46875 0 L 3.125 0 L 3.125 -2.1875 L 5.3125 -2.1875 L 5.3125 -2.84375 L 3.125 -2.84375 L 3.125 -5.03125 L 2.46875 -5.03125 Z M 2.46875 -2.84375 "/>
</g>
</g>
</defs>
<path fill="none" stroke-width="0.3985" stroke-linecap="round" stroke-linejoin="round" stroke="rgb(75%, 75%, 75%)" stroke-opacity="1" stroke-dasharray="2.98883 2.98883" stroke-miterlimit="10" d="M -0.000373782 -0.00052722 L 99.212703 -0.00052722 " transform="matrix(0.997183, 0, 0, -0.997183, 91.351935, 75.054162)"/>
<path fill="none" stroke-width="0.3985" stroke-linecap="round" stroke-linejoin="round" stroke="rgb(75%, 75%, 75%)" stroke-opacity="1" stroke-dasharray="2.98883 2.98883" stroke-miterlimit="10" d="M -0.000373782 -0.00052722 L -0.000373782 70.867075 " transform="matrix(0.997183, 0, 0, -0.997183, 91.351935, 75.054162)"/>
<path fill="none" stroke-width="0.3985" stroke-linecap="round" stroke-linejoin="round" stroke="rgb(75%, 75%, 75%)" stroke-opacity="1" stroke-dasharray="2.98883 2.98883" stroke-miterlimit="10" d="M -0.000373782 -0.00052722 L -42.522502 -28.346001 " transform="matrix(0.997183, 0, 0, -0.997183, 91.351935, 75.054162)"/>
<path fill="none" stroke-width="2.19182" stroke-linecap="round" stroke-linejoin="round" stroke="rgb(0%, 39.99939%, 79.998779%)" stroke-opacity="1" stroke-miterlimit="10" d="M -77.954345 21.258578 L -42.518585 21.258578 " transform="matrix(0.997183, 0, 0, -0.997183, 91.351935, 75.054162)"/>
<path fill="none" stroke-width="0.59776" stroke-linecap="round" stroke-linejoin="round" stroke="rgb(100%, 100%, 100%)" stroke-opacity="1" stroke-miterlimit="10" d="M -77.954345 21.258578 L -42.518585 21.258578 " transform="matrix(0.997183, 0, 0, -0.997183, 91.351935, 75.054162)"/>
<path fill="none" stroke-width="2.19182" stroke-linecap="round" stroke-linejoin="round" stroke="rgb(0%, 39.99939%, 79.998779%)" stroke-opacity="1" stroke-dasharray="2.98883 2.98883" stroke-miterlimit="10" d="M -42.518585 21.258578 L -26.677084 21.258578 " transform="matrix(0.997183, 0, 0, -0.997183, 91.351935, 75.054162)"/>
<path fill="none" stroke-width="0.59776" stroke-linecap="round" stroke-linejoin="round" stroke="rgb(100%, 100%, 100%)" stroke-opacity="1" stroke-dasharray="2.98883 2.98883" stroke-miterlimit="10" d="M -42.518585 21.258578 L -26.677084 21.258578 " transform="matrix(0.997183, 0, 0, -0.997183, 91.351935, 75.054162)"/>
<path fill-rule="nonzero" fill="rgb(0%, 39.99939%, 79.998779%)" fill-opacity="1" d="M 70.152344 53.855469 C 68.550781 53.554688 65.949219 52.652344 64.152344 51.605469 L 64.152344 56.105469 C 65.949219 55.054688 68.550781 54.152344 70.152344 53.855469 "/>
<g fill="rgb(0%, 39.99939%, 79.998779%)" fill-opacity="1">
<use xlink:href="#glyph-0-0" x="8.010371" y="46.869781"/>
</g>
<g fill="rgb(0%, 39.99939%, 79.998779%)" fill-opacity="1">
<use xlink:href="#glyph-0-1" x="15.282451" y="46.869781"/>
</g>
<g fill="rgb(0%, 39.99939%, 79.998779%)" fill-opacity="1">
<use xlink:href="#glyph-0-2" x="20.617297" y="46.869781"/>
</g>
<g fill="rgb(0%, 39.99939%, 79.998779%)" fill-opacity="1">
<use xlink:href="#glyph-0-1" x="27.303239" y="46.869781"/>
</g>
<g fill="rgb(0%, 39.99939%, 79.998779%)" fill-opacity="1">
<use xlink:href="#glyph-0-3" x="32.747364" y="46.869781"/>
</g>
<path fill="none" stroke-width="0.79701" stroke-linecap="round" stroke-linejoin="round" stroke="rgb(0%, 0%, 0%)" stroke-opacity="1" stroke-miterlimit="10" d="M 99.212703 -0.00052722 L 99.212703 70.867075 L 56.694492 42.521601 L 56.694492 -28.346001 Z M 99.212703 -0.00052722 " transform="matrix(0.997183, 0, 0, -0.997183, 91.351935, 75.054162)"/>
<path fill="none" stroke-width="0.79701" stroke-linecap="round" stroke-linejoin="round" stroke="rgb(0%, 0%, 0%)" stroke-opacity="1" stroke-miterlimit="10" d="M -0.000373782 70.867075 L 99.212703 70.867075 L 56.694492 42.521601 L -42.522502 42.521601 Z M -0.000373782 70.867075 " transform="matrix(0.997183, 0, 0, -0.997183, 91.351935, 75.054162)"/>
<path fill="none" stroke-width="0.79701" stroke-linecap="round" stroke-linejoin="round" stroke="rgb(0%, 0%, 0%)" stroke-opacity="1" stroke-miterlimit="10" d="M -42.522502 -28.346001 L 56.694492 -28.346001 L 56.694492 42.521601 L -42.522502 42.521601 Z M -42.522502 -28.346001 " transform="matrix(0.997183, 0, 0, -0.997183, 91.351935, 75.054162)"/>
<path fill="none" stroke-width="0.79701" stroke-linecap="round" stroke-linejoin="round" stroke="rgb(0%, 0%, 0%)" stroke-opacity="1" stroke-miterlimit="10" d="M -0.000373782 70.867075 L -42.522502 42.521601 L -42.522502 -28.346001 " transform="matrix(0.997183, 0, 0, -0.997183, 91.351935, 75.054162)"/>
<path fill-rule="nonzero" fill="rgb(90.194702%, 47.059631%, 0%)" fill-opacity="1" d="M 121.109375 53.855469 C 121.109375 53.03125 120.441406 52.363281 119.617188 52.363281 C 118.796875 52.363281 118.128906 53.03125 118.128906 53.855469 C 118.128906 54.675781 118.796875 55.34375 119.617188 55.34375 C 120.441406 55.34375 121.109375 54.675781 121.109375 53.855469 Z M 121.109375 53.855469 "/>
<path fill="none" stroke-width="1.19553" stroke-linecap="round" stroke-linejoin="round" stroke="rgb(90.194702%, 47.059631%, 0%)" stroke-opacity="1" stroke-miterlimit="10" d="M 28.3451 21.258578 L 50.955669 21.258578 " transform="matrix(0.997183, 0, 0, -0.997183, 91.351935, 75.054162)"/>
<path fill-rule="nonzero" fill="rgb(90.194702%, 47.059631%, 0%)" fill-opacity="1" d="M 147.886719 53.855469 C 146.191406 53.535156 143.433594 52.582031 141.527344 51.46875 L 141.527344 56.238281 C 143.433594 55.125 146.191406 54.171875 147.886719 53.855469 "/>
<g fill="rgb(90.194702%, 47.059631%, 0%)" fill-opacity="1">
<use xlink:href="#glyph-0-4" x="88.142003" y="50.600243"/>
</g>
<g fill="rgb(90.194702%, 47.059631%, 0%)" fill-opacity="1">
<use xlink:href="#glyph-0-5" x="93.834492" y="50.600243"/>
</g>
<g fill="rgb(90.194702%, 47.059631%, 0%)" fill-opacity="1">
<use xlink:href="#glyph-1-0" x="99.901782" y="52.091031"/>
</g>
<g fill="rgb(90.194702%, 47.059631%, 0%)" fill-opacity="1">
<use xlink:href="#glyph-0-1" x="106.346576" y="50.600243"/>
</g>
<g fill="rgb(90.194702%, 47.059631%, 0%)" fill-opacity="1">
<use xlink:href="#glyph-0-6" x="111.433058" y="50.600243"/>
</g>
<path fill="none" stroke-width="2.19182" stroke-linecap="round" stroke-linejoin="round" stroke="rgb(0%, 39.99939%, 79.998779%)" stroke-opacity="1" stroke-miterlimit="10" d="M 83.371202 21.258578 L 128.976234 21.258578 " transform="matrix(0.997183, 0, 0, -0.997183, 91.351935, 75.054162)"/>
<path fill="none" stroke-width="0.59776" stroke-linecap="round" stroke-linejoin="round" stroke="rgb(100%, 100%, 100%)" stroke-opacity="1" stroke-miterlimit="10" d="M 83.371202 21.258578 L 128.976234 21.258578 " transform="matrix(0.997183, 0, 0, -0.997183, 91.351935, 75.054162)"/>
<path fill-rule="nonzero" fill="rgb(0%, 39.99939%, 79.998779%)" fill-opacity="1" d="M 169.085938 53.855469 C 170.6875 54.152344 173.285156 55.054688 175.085938 56.105469 L 175.085938 51.605469 C 173.285156 52.652344 170.6875 53.554688 169.085938 53.855469 "/>
<g fill="rgb(0%, 39.99939%, 79.998779%)" fill-opacity="1">
<use xlink:href="#glyph-2-0" x="224.468886" y="42.387444"/>
</g>
<g fill="rgb(0%, 39.99939%, 79.998779%)" fill-opacity="1">
<use xlink:href="#glyph-0-0" x="229.057923" y="56.40684"/>
</g>
<g fill="rgb(0%, 39.99939%, 79.998779%)" fill-opacity="1">
<use xlink:href="#glyph-3-0" x="236.63053" y="56.40684"/>
</g>
<g fill="rgb(0%, 39.99939%, 79.998779%)" fill-opacity="1">
<use xlink:href="#glyph-0-7" x="245.84151" y="49.681837"/>
</g>
<g fill="rgb(0%, 39.99939%, 79.998779%)" fill-opacity="1">
<use xlink:href="#glyph-0-0" x="252.159874" y="49.681837"/>
</g>
<path fill="none" stroke-width="0.558" stroke-linecap="butt" stroke-linejoin="round" stroke="rgb(0%, 39.99939%, 79.998779%)" stroke-opacity="1" stroke-miterlimit="10" d="M -0.000286759 -0.00142171 L 11.923929 -0.00142171 " transform="matrix(0.997183, 0, 0, -0.997183, 245.633098, 53.854051)"/>
<g fill="rgb(0%, 39.99939%, 79.998779%)" fill-opacity="1">
<use xlink:href="#glyph-0-7" x="246.440817" y="63.222585"/>
</g>
<g fill="rgb(0%, 39.99939%, 79.998779%)" fill-opacity="1">
<use xlink:href="#glyph-0-8" x="252.03396" y="63.222585"/>
</g>
<g fill="rgb(0%, 39.99939%, 79.998779%)" fill-opacity="1">
<use xlink:href="#glyph-0-1" x="258.965435" y="56.40684"/>
</g>
<g fill="rgb(0%, 39.99939%, 79.998779%)" fill-opacity="1">
<use xlink:href="#glyph-0-8" x="263.902899" y="56.40684"/>
</g>
<g fill="rgb(0%, 39.99939%, 79.998779%)" fill-opacity="1">
<use xlink:href="#glyph-2-1" x="268.994105" y="42.387444"/>
</g>
<g fill="rgb(0%, 39.99939%, 79.998779%)" fill-opacity="1">
<use xlink:href="#glyph-0-1" x="275.359124" y="56.40684"/>
</g>
<g fill="rgb(0%, 39.99939%, 79.998779%)" fill-opacity="1">
<use xlink:href="#glyph-0-2" x="280.693969" y="56.40684"/>
</g>
<g fill="rgb(0%, 39.99939%, 79.998779%)" fill-opacity="1">
<use xlink:href="#glyph-0-1" x="287.389846" y="56.40684"/>
</g>
<g fill="rgb(0%, 39.99939%, 79.998779%)" fill-opacity="1">
<use xlink:href="#glyph-0-3" x="292.833972" y="56.40684"/>
</g>
<path fill="none" stroke-width="0.3985" stroke-linecap="round" stroke-linejoin="round" stroke="rgb(0%, 0%, 0%)" stroke-opacity="1" stroke-miterlimit="10" d="M -38.534706 -39.686541 L 52.706695 -39.686541 " transform="matrix(0.997183, 0, 0, -0.997183, 91.351935, 75.054162)"/>
<path fill-rule="nonzero" fill="rgb(0%, 0%, 0%)" fill-opacity="1" d="M 49.347656 114.628906 C 50.40625 114.824219 52.128906 115.421875 53.324219 116.117188 L 53.324219 113.136719 C 52.128906 113.832031 50.40625 114.429688 49.347656 114.628906 "/>
<path fill="none" stroke-width="0.3985" stroke-linecap="butt" stroke-linejoin="miter" stroke="rgb(0%, 0%, 0%)" stroke-opacity="1" stroke-miterlimit="10" d="M 0.00134056 2.293253 L 0.00134056 -2.28997 " transform="matrix(-0.997183, 0, 0, 0.997183, 49.149774, 114.62727)"/>
<path fill-rule="nonzero" fill="rgb(0%, 0%, 0%)" fill-opacity="1" d="M 147.488281 114.628906 C 146.429688 114.429688 144.707031 113.832031 143.515625 113.136719 L 143.515625 116.117188 C 144.707031 115.421875 146.429688 114.824219 147.488281 114.628906 "/>
<path fill="none" stroke-width="0.3985" stroke-linecap="butt" stroke-linejoin="miter" stroke="rgb(0%, 0%, 0%)" stroke-opacity="1" stroke-miterlimit="10" d="M 0.0008 2.28997 L 0.0008 -2.293253 " transform="matrix(0.997183, 0, 0, -0.997183, 147.686702, 114.62727)"/>
<g fill="rgb(0%, 0%, 0%)" fill-opacity="1">
<use xlink:href="#glyph-0-1" x="93.627507" y="124.842512"/>
</g>
<g fill="rgb(0%, 0%, 0%)" fill-opacity="1">
<use xlink:href="#glyph-0-8" x="98.564971" y="124.842512"/>
</g>
<path fill="none" stroke-width="0.3985" stroke-linecap="round" stroke-linejoin="round" stroke="rgb(0%, 0%, 0%)" stroke-opacity="1" stroke-miterlimit="10" d="M 141.734831 -45.354853 L 160.823761 -45.354853 " transform="matrix(0.997183, 0, 0, -0.997183, 91.351935, 75.054162)"/>
<path fill-rule="nonzero" fill="rgb(0%, 0%, 0%)" fill-opacity="1" d="M 255.300781 120.28125 C 254.238281 120.082031 252.519531 119.484375 251.324219 118.789062 L 251.324219 121.769531 C 252.519531 121.074219 254.238281 120.480469 255.300781 120.28125 "/>
<g fill="rgb(0%, 0%, 0%)" fill-opacity="1">
<use xlink:href="#glyph-0-8" x="258.80788" y="122.381464"/>
</g>
<path fill="none" stroke-width="0.3985" stroke-linecap="round" stroke-linejoin="round" stroke="rgb(0%, 0%, 0%)" stroke-opacity="1" stroke-miterlimit="10" d="M 141.734831 -45.354853 L 141.734831 -26.262006 " transform="matrix(0.997183, 0, 0, -0.997183, 91.351935, 75.054162)"/>
<path fill-rule="nonzero" fill="rgb(0%, 0%, 0%)" fill-opacity="1" d="M 232.6875 97.667969 C 232.488281 98.726562 231.890625 100.449219 231.195312 101.640625 L 234.175781 101.640625 C 233.480469 100.449219 232.886719 98.726562 232.6875 97.667969 "/>
<g fill="rgb(0%, 0%, 0%)" fill-opacity="1">
<use xlink:href="#glyph-0-2" x="230.48888" y="92.096019"/>
</g>
<path fill="none" stroke-width="0.3985" stroke-linecap="round" stroke-linejoin="round" stroke="rgb(0%, 0%, 0%)" stroke-opacity="1" stroke-miterlimit="10" d="M 141.734831 -45.354853 L 131.111154 -52.437304 " transform="matrix(0.997183, 0, 0, -0.997183, 91.351935, 75.054162)"/>
<path fill-rule="nonzero" fill="rgb(0%, 0%, 0%)" fill-opacity="1" d="M 219.117188 129.328125 C 220.109375 128.902344 221.875 128.445312 223.25 128.363281 L 221.597656 125.882812 C 220.992188 127.121094 219.890625 128.574219 219.117188 129.328125 "/>
<g fill="rgb(0%, 0%, 0%)" fill-opacity="1">
<use xlink:href="#glyph-0-3" x="211.444679" y="137.136781"/>
</g>
</svg>
